<svg xmlns="http://www.w3.org/2000/svg" viewBox="0 0 1800 620" preserveAspectRatio="xMidYMid slice">
<defs>
 <linearGradient id="sky" x1="0" y1="0" x2="0" y2="1"><stop stop-color="#09090a"/><stop offset=".55" stop-color="#130608"/><stop offset="1" stop-color="#050607"/></linearGradient>
 <linearGradient id="road" x1="0" y1="1" x2="1" y2="0"><stop stop-color="#ff1a21" stop-opacity="0"/><stop offset=".28" stop-color="#ff1a21" stop-opacity=".25"/><stop offset=".52" stop-color="#ff2028"/><stop offset=".57" stop-color="#fff"/><stop offset=".61" stop-color="#ff2028"/><stop offset=".78" stop-color="#8d060b" stop-opacity=".4"/><stop offset="1" stop-color="#ff1a21" stop-opacity="0"/></linearGradient>
 <filter id="blur"><feGaussianBlur stdDeviation="12"/></filter><filter id="glow"><feGaussianBlur stdDeviation="5"/></filter>
</defs>
<rect width="1800" height="620" fill="url(#sky)"/>
<path d="M0 420 260 300 390 340 570 225 760 318 970 210 1170 310 1320 235 1500 330 1800 255 1800 620 0 620Z" fill="#0d0e10"/>
<path d="M0 438 250 330 390 368 565 252 760 342 967 240 1160 338 1320 263 1505 356 1800 278" fill="none" stroke="#601016" stroke-width="2" opacity=".5"/>
<path d="M-150 585 C280 520 500 585 790 500 S1230 370 1920 470" fill="none" stroke="url(#road)" stroke-width="26" opacity=".8" filter="url(#blur)"/>
<path d="M-150 577 C280 512 500 577 790 492 S1230 362 1920 462" fill="none" stroke="#ff2028" stroke-width="3" opacity=".98"/>
<path d="M260 620 C610 560 850 565 1120 490 S1470 420 1810 425" fill="none" stroke="#d80e15" stroke-width="5" opacity=".55" filter="url(#glow)"/>
<path d="M1050 0 1540 0 1320 620 880 620Z" fill="#7d070c" opacity=".17"/><path d="M1260 0 1325 0 1100 620 1040 620Z" fill="#ef131b" opacity=".62"/>
</svg>